# xmcd CD database file
#
# Track frame offsets:
#	150
#	18672
#	33185
#	45010
#	65252
#	81550
#	95300
#	110430
#	124010
#	137867
#	149575
#
# Disc length: 2222 seconds
#
# Revision: 1
# Processed by: cddbd v1.5.2PL0 Copyright (c) Steve Scherf et al.
# Submitted via: CDex 1.70beta2
#
DISCID=9108ac0b
DTITLE=The Brent Lee Band - Songs From a Had
DYEAR=1995
DGENRE=Country
TTITLE0=Blue Skies
TTITLE1=She Loves me not
TTITLE2=The hands of time
TTITLE3=My heart is on the Line
TTITLE4=The Kids are all ugly 'cause of you
TTITLE5=She won't be cryin
TTITLE6=My heart
TTITLE7=This life
TTITLE8=Your leavin' (is long overdue)
TTITLE9=All i've got to say is goodbye
TTITLE10=if you were still mine
EXTD=YEAR: 1995
EXTT0=
EXTT1=
EXTT2=
EXTT3=
EXTT4=
EXTT5=
EXTT6=
EXTT7=
EXTT8=
EXTT9=
EXTT10=
PLAYORDER=
